<?xml version="1.0" standalone="no"?>
<!DOCTYPE svg PUBLIC "-//W3C//DTD SVG 20010904//EN"
 "http://www.w3.org/TR/2001/REC-SVG-20010904/DTD/svg10.dtd">
<svg version="1.0" xmlns="http://www.w3.org/2000/svg"
 width="2463.000000pt" height="3240.000000pt" viewBox="0 0 2463.000000 3240.000000"
 preserveAspectRatio="xMidYMid meet">

<g transform="translate(0.000000,3240.000000) scale(0.100000,-0.100000)"
fill="#000000" stroke="none">
<path d="M7180 27013 c0 -4533 2 -5277 15 -5336 17 -79 69 -183 125 -249 27
-31 351 -270 960 -707 505 -364 921 -661 924 -661 3 0 5 2487 4 5526 l-3 5527
-960 554 c-528 305 -984 568 -1012 584 l-53 30 0 -5268z"/>
<path d="M9690 24953 l0 -4929 1008 -582 c555 -320 1011 -582 1015 -582 4 0 7
2218 7 4928 l0 4929 -997 576 c-549 317 -1006 579 -1015 582 -17 7 -18 -232
-18 -4922z"/>
<path d="M13150 28393 c-254 -17 -375 -26 -485 -39 -193 -21 -358 -44 -379
-53 -14 -5 292 -199 1302 -824 l1320 -818 148 -34 c2101 -490 3851 -2035 4607
-4065 199 -533 323 -1079 384 -1680 25 -251 25 -941 0 -1190 -80 -786 -264
-1467 -582 -2151 -548 -1183 -1451 -2179 -2595 -2863 -188 -113 -641 -338
-845 -420 l-159 -64 -13 -89 c-75 -527 -332 -1130 -712 -1673 -51 -73 -75
-116 -67 -118 7 -2 100 16 207 39 2051 441 3863 1676 5036 3434 1089 1633
1546 3597 1292 5555 -179 1382 -709 2686 -1549 3809 -254 339 -444 557 -774
886 -255 255 -423 405 -678 608 -1313 1044 -2889 1646 -4578 1747 -147 9 -764
11 -880 3z"/>
<path d="M12382 22955 l3 -4487 1010 -583 1010 -583 3 4481 c2 3577 -1 4484
-10 4493 -11 10 -1988 1154 -2010 1162 -4 2 -7 -2015 -6 -4483z"/>
<path d="M6765 22853 c-151 -113 -376 -328 -484 -463 -421 -523 -536 -1079
-344 -1660 43 -131 151 -353 236 -487 387 -606 1099 -1206 2142 -1805 202
-116 373 -207 875 -468 1233 -641 2235 -1264 2930 -1824 357 -287 734 -648
945 -904 722 -876 916 -1720 613 -2672 -239 -752 -823 -1588 -1783 -2556 -101
-101 -178 -181 -172 -178 7 4 92 60 189 125 881 587 1735 1342 2303 2034 526
641 865 1278 999 1875 53 238 61 316 61 605 0 300 -9 382 -70 620 -230 899
-962 1711 -2207 2443 -187 110 -353 199 -828 442 -2509 1285 -3778 2006 -4549
2583 -362 271 -640 548 -786 781 -60 97 -118 230 -146 338 -28 105 -37 329
-19 461 18 135 79 364 159 597 38 112 69 206 67 207 -1 1 -60 -41 -131 -94z"/>
<path d="M5567 20795 c-40 -162 -78 -377 -99 -545 -17 -139 -17 -546 0 -680
70 -556 289 -1036 691 -1515 97 -116 357 -376 491 -491 640 -549 1425 -1034
2892 -1785 664 -340 854 -447 1198 -674 738 -488 1336 -1066 1743 -1686 310
-472 526 -997 593 -1440 8 -57 16 -105 18 -106 2 -2 26 60 55 138 100 274 178
584 218 869 24 171 24 607 0 763 -37 242 -104 483 -193 696 -307 731 -986
1435 -2045 2119 -539 349 -981 592 -1984 1095 -895 449 -1336 702 -1800 1036
-852 611 -1413 1340 -1690 2196 l-52 159 -36 -149z"/>
<path d="M7880 14894 c-198 -39 -353 -123 -481 -262 -96 -104 -150 -204 -196
-358 -16 -54 -18 -129 -21 -823 -3 -842 -2 -861 58 -989 69 -148 177 -260 315
-327 143 -69 -31 -65 2378 -65 2070 0 2178 1 2173 18 -2 9 -16 64 -30 122
-105 446 -346 942 -683 1408 l-75 102 -1237 0 -1238 0 -6 238 c-6 274 -18 339
-91 487 -100 201 -268 346 -486 416 -82 27 -112 32 -225 34 -71 2 -141 1 -155
-1z"/>
<path d="M237 12043 c-12 -12 -7 -127 8 -192 33 -138 142 -289 259 -360 67
-40 75 -36 83 41 12 115 -46 228 -162 313 -62 46 -114 103 -167 182 -8 13 -18
20 -21 16z m88 -233 c10 -19 38 -66 62 -105 34 -54 37 -62 13 -35 -37 43 -137
242 -145 290 -3 21 6 4 23 -40 16 -41 37 -91 47 -110z"/>
<path d="M24305 11978 c-30 -42 -79 -91 -123 -125 -127 -96 -179 -195 -169
-320 2 -35 8 -67 11 -71 14 -14 104 45 171 113 81 81 127 162 155 271 20 78
26 170 12 190 -4 6 -27 -17 -57 -58z m16 -85 c-29 -75 -120 -235 -142 -248 -5
-4 7 19 27 51 43 67 119 225 130 269 4 16 9 25 11 18 2 -6 -10 -46 -26 -90z"/>
<path d="M23682 11791 c-107 -240 -101 -471 19 -622 17 -21 35 -39 41 -39 5 0
25 12 43 26 34 26 34 26 30 3 -3 -12 -9 -27 -15 -33 -18 -18 -11 -35 28 -60
113 -76 270 -43 406 83 26 25 62 65 78 89 l29 42 -77 0 c-62 0 -88 5 -132 26
-78 37 -134 31 -210 -23 l-57 -40 29 60 c35 69 45 163 26 222 -7 21 -37 65
-67 98 -48 52 -123 183 -123 216 0 5 -4 12 -9 15 -5 3 -22 -25 -39 -63z m43
-461 c4 -30 5 -53 2 -50 -12 11 -37 237 -37 338 0 210 15 194 21 -23 3 -115
10 -235 14 -265z m555 -101 c-65 -54 -248 -121 -324 -118 -24 1 -19 3 19 10
78 15 194 56 260 93 71 40 78 42 45 15z m-430 -13 c0 -2 -8 -10 -17 -17 -16
-13 -17 -12 -4 4 13 16 21 21 21 13z m47 -112 c-3 -3 -12 -4 -19 -1 -8 3 -5 6
6 6 11 1 17 -2 13 -5z"/>
<path d="M851 11793 c-27 -71 -69 -137 -115 -181 -74 -71 -88 -203 -33 -310
15 -29 21 -50 14 -46 -6 4 -32 21 -56 37 -63 43 -123 47 -194 13 -45 -21 -71
-26 -132 -26 l-76 0 18 -31 c27 -46 141 -150 198 -180 70 -38 150 -52 209 -39
40 9 126 54 126 67 0 2 -7 17 -15 33 -9 17 -13 30 -9 30 4 0 0 8 -7 18 -8 9 3
2 24 -15 21 -18 42 -33 48 -33 31 0 99 107 125 194 22 78 15 262 -14 351 -23
73 -71 175 -81 175 -5 0 -18 -26 -30 -57z m56 -223 c-5 -121 -25 -285 -34
-277 -2 3 1 51 7 107 5 56 11 170 11 254 1 130 3 144 11 96 5 -30 7 -111 5
-180z m-419 -412 c31 -11 86 -26 122 -34 l65 -14 -60 5 c-33 3 -82 12 -108 20
-64 19 -172 73 -192 95 -11 12 8 6 50 -17 36 -19 92 -44 123 -55z"/>
<path d="M1146 11457 c-24 -87 -59 -161 -101 -209 -46 -55 -69 -126 -62 -194
6 -54 45 -154 73 -185 13 -15 13 -16 -3 -15 -10 1 -37 12 -60 24 -62 33 -147
31 -199 -4 -57 -39 -94 -52 -168 -60 -36 -4 -66 -10 -66 -14 0 -13 104 -106
161 -143 159 -106 344 -109 440 -6 l29 32 -25 33 c-14 19 -23 34 -19 34 4 0
-5 14 -22 31 -22 24 -14 20 31 -15 33 -25 65 -46 72 -46 19 0 75 88 93 149 39
124 34 244 -15 397 -24 78 -112 245 -132 251 -5 2 -18 -25 -27 -60z m70 -87
c10 -42 16 -137 19 -270 2 -132 1 -184 -5 -145 -4 33 -8 96 -9 140 -1 73 -23
297 -36 363 l-5 27 10 -25 c6 -14 18 -54 26 -90z m11 -517 c-3 -10 -5 -4 -5
12 0 17 2 24 5 18 2 -7 2 -21 0 -30z m-482 -126 c75 -24 179 -42 285 -51 25
-2 -9 -2 -75 -1 -130 3 -231 28 -321 81 -54 32 -58 41 -6 15 20 -10 73 -30
117 -44z"/>
<path d="M23415 11510 c-3 -5 -4 -14 -1 -18 3 -5 -2 -51 -10 -102 -8 -52 -21
-188 -29 -304 l-14 -211 4 220 c2 183 6 234 24 303 25 98 25 103 5 77 -33 -42
-95 -177 -116 -252 -28 -100 -31 -261 -6 -343 19 -62 70 -148 93 -156 8 -4 32
6 53 21 37 28 36 28 -8 -19 -38 -41 -233 -216 -294 -265 -11 -9 -1 8 22 36 74
96 101 217 68 309 -8 22 -30 65 -49 96 -36 60 -62 145 -73 242 -4 31 -10 56
-13 56 -3 0 -32 -33 -63 -73 -74 -93 -153 -250 -179 -356 -38 -154 -16 -346
51 -431 l19 -25 41 23 c22 12 40 21 40 18 0 -10 -264 -195 -365 -256 l-40 -24
51 57 c81 88 99 134 99 247 0 80 -4 102 -23 139 -34 64 -51 142 -58 263 -4 59
-10 108 -14 108 -15 0 -178 -178 -219 -239 -152 -223 -199 -481 -121 -658 l19
-43 42 15 c78 28 51 7 -78 -58 -233 -118 -417 -194 -309 -128 51 32 121 114
151 177 38 81 43 164 15 255 -30 100 -35 168 -20 299 6 61 10 113 8 115 -8 8
-145 -93 -218 -162 -164 -154 -271 -326 -310 -498 -16 -67 -16 -200 0 -264 12
-50 13 -52 41 -47 83 16 89 15 29 -9 -124 -47 -487 -152 -496 -143 -1 2 22 16
52 32 117 61 200 162 231 278 15 58 16 76 4 160 -15 109 -7 183 38 352 l28
104 -22 -8 c-136 -52 -314 -169 -435 -286 -189 -184 -289 -384 -290 -581 0
-93 10 -113 62 -114 37 -1 33 -3 -32 -15 -98 -19 -451 -64 -493 -64 -28 1 -24
4 33 27 85 34 192 104 228 151 33 42 70 111 84 157 5 16 13 84 17 150 9 133
24 185 101 357 27 59 45 108 42 108 -30 0 -215 -60 -296 -97 -350 -156 -587
-399 -657 -671 -10 -41 -19 -99 -19 -128 0 -56 6 -63 63 -65 25 -1 21 -3 -18
-11 -57 -10 -562 0 -603 12 l-27 8 30 1 c53 2 147 30 223 67 148 72 239 197
269 370 23 134 77 252 205 442 27 39 45 72 41 72 -39 -1 -239 -35 -320 -55
-456 -110 -808 -398 -894 -732 -27 -109 -28 -108 39 -124 31 -7 49 -15 40 -17
-22 -4 -197 18 -497 65 l-244 37 102 13 c291 37 466 168 538 402 46 153 114
260 279 441 l78 85 -64 7 c-76 9 -305 -6 -440 -28 -112 -19 -364 -99 -470
-149 -255 -123 -430 -312 -500 -542 -31 -103 -26 -122 35 -144 28 -10 47 -18
42 -18 -4 -1 -96 13 -205 30 -108 17 -287 41 -397 53 l-200 22 87 13 c118 17
260 68 350 124 138 86 225 199 275 355 47 148 143 272 339 439 63 53 111 100
107 104 -5 4 -63 12 -130 18 -307 28 -542 2 -814 -89 -286 -95 -502 -246 -640
-446 -74 -107 -139 -293 -139 -395 l0 -48 63 -15 62 -15 -115 5 c-63 3 -185 9
-270 15 -85 5 -236 9 -335 9 l-180 1 95 25 c111 29 289 114 375 178 73 55 153
148 195 227 17 32 44 110 60 174 17 64 43 142 59 173 49 97 148 221 288 360
l133 132 -173 0 c-375 0 -677 -62 -957 -196 -280 -134 -471 -297 -592 -502
-90 -153 -128 -291 -128 -465 l0 -104 73 -9 72 -9 -150 -13 c-190 -16 -528
-66 -663 -98 -57 -13 -109 -24 -115 -24 -7 0 23 20 65 44 371 212 539 440 568
770 20 229 120 418 375 709 l77 89 -58 -7 c-274 -29 -479 -70 -653 -130 -500
-171 -854 -438 -1064 -800 -156 -269 -169 -600 -33 -863 14 -28 18 -30 48 -22
89 22 84 15 -35 -47 -223 -118 -407 -265 -505 -401 -25 -35 -76 -122 -113
-193 -114 -215 -239 -388 -376 -520 -68 -66 -160 -139 -175 -139 -18 0 -132
97 -213 182 -137 142 -221 262 -332 471 -87 165 -114 206 -190 288 -102 110
-252 217 -448 322 -60 32 -101 56 -90 53 11 -3 39 -9 62 -14 l41 -9 32 68
c113 246 105 520 -22 774 -154 306 -459 580 -834 749 -289 129 -525 190 -908
231 l-60 7 55 -62 c282 -322 378 -501 399 -746 18 -206 89 -360 238 -516 73
-77 216 -181 342 -252 36 -20 60 -36 54 -36 -6 0 -62 12 -125 26 -152 34 -459
79 -649 95 l-155 14 72 9 73 9 0 97 c0 261 -100 490 -305 694 -133 133 -389
284 -617 364 -198 70 -483 112 -756 112 l-174 0 134 -132 c218 -217 297 -337
343 -526 44 -177 127 -308 258 -406 94 -71 260 -150 379 -181 l93 -24 -175 -1
c-96 0 -287 -7 -425 -15 -301 -18 -318 -17 -238 2 l63 14 0 39 c0 63 -28 179
-63 260 -169 391 -654 661 -1232 687 -139 6 -412 -11 -428 -26 -4 -5 30 -40
76 -79 231 -195 314 -302 377 -488 48 -142 123 -237 257 -324 39 -26 101 -59
136 -73 56 -23 207 -59 287 -69 14 -2 -51 -11 -145 -21 -143 -15 -264 -32
-605 -82 -30 -5 -27 -3 18 15 62 25 63 31 29 148 -64 221 -262 429 -519 546
-162 73 -386 136 -563 157 -110 13 -370 17 -381 6 -4 -3 24 -39 61 -79 160
-173 246 -305 285 -438 12 -41 34 -97 47 -125 32 -63 131 -162 203 -202 72
-41 210 -81 313 -90 l82 -7 -75 -13 c-128 -22 -552 -82 -620 -88 l-65 -5 50
16 c28 9 54 19 58 23 14 13 -23 152 -63 236 -126 271 -438 496 -824 595 -98
25 -147 34 -309 55 l-37 5 53 -82 c137 -213 175 -297 200 -439 19 -112 58
-189 132 -265 85 -86 254 -164 357 -164 15 0 28 -4 28 -8 0 -11 -247 -22 -492
-22 -119 0 -188 4 -188 10 0 6 15 10 34 10 58 0 66 7 66 59 -1 116 -58 275
-144 395 -56 79 -190 206 -290 275 -137 94 -363 194 -514 226 l-32 7 25 -59
c105 -234 115 -269 125 -413 5 -86 15 -142 29 -180 44 -117 147 -212 291 -269
60 -24 69 -30 45 -31 -43 0 -255 26 -420 53 -111 17 -132 23 -101 27 35 4 41
9 49 40 21 80 -13 260 -70 375 -73 144 -234 321 -384 420 -69 47 -279 158
-285 152 -2 -1 8 -41 21 -87 45 -157 58 -260 44 -351 -15 -107 -7 -178 31
-255 36 -74 133 -168 209 -205 28 -13 49 -25 47 -26 -5 -6 -292 77 -406 116
-88 31 -106 40 -75 38 38 -2 40 -1 51 38 17 56 16 208 -2 285 -49 208 -227
446 -449 599 l-77 53 9 -93 c13 -150 8 -245 -17 -328 -30 -97 -24 -177 19
-265 29 -59 97 -134 161 -178 l25 -18 -25 9 c-87 30 -455 209 -447 218 2 2 23
-3 46 -12 l42 -15 16 38 c8 20 22 71 31 112 45 221 -84 526 -314 740 l-59 55
-11 -126 c-13 -144 -15 -150 -57 -244 -62 -138 -36 -272 76 -392 l62 -66 -57
36 c-32 20 -77 49 -100 63 -59 37 -278 194 -278 200 0 2 23 -8 50 -24 l50 -27
20 25 c66 83 88 268 51 422 -33 141 -111 289 -208 398 l-40 44 -8 -59 c-12
-103 -42 -193 -86 -267 -43 -72 -44 -74 -44 -163 0 -96 14 -136 74 -215 44
-59 37 -70 -28 -44 -98 41 -168 29 -250 -41 -52 -45 -104 -66 -200 -81 -41 -6
-43 -8 -26 -20 10 -7 21 -11 25 -9 4 3 33 -4 65 -15 92 -32 266 -53 380 -47
116 6 78 -8 -50 -19 -96 -7 -236 14 -327 51 -34 14 -63 23 -65 21 -7 -7 75
-66 148 -105 204 -110 400 -93 505 44 l26 34 -22 31 c-17 24 4 12 91 -51 63
-46 154 -109 204 -142 49 -33 81 -56 70 -52 -11 5 -53 10 -93 13 -99 6 -149
-14 -205 -80 -49 -58 -98 -89 -182 -114 -33 -10 -64 -21 -68 -24 -10 -9 68
-60 153 -99 265 -124 528 -78 625 109 16 31 16 33 -7 57 -17 19 11 8 112 -44
74 -38 176 -86 225 -108 50 -21 93 -41 97 -44 4 -3 -32 -6 -80 -6 -78 0 -93
-3 -141 -30 -39 -21 -62 -43 -80 -75 -42 -73 -112 -135 -201 -178 l-81 -40 86
-36 c142 -59 195 -70 345 -70 156 -1 211 12 300 72 66 45 112 104 135 173 19
57 21 52 -32 86 -10 6 42 -8 115 -33 73 -24 199 -62 279 -84 81 -22 148 -42
150 -44 2 -2 -29 -5 -69 -8 -140 -9 -210 -59 -273 -192 -45 -98 -85 -143 -189
-212 -68 -45 -66 -46 64 -75 245 -53 472 -25 628 78 93 62 158 164 169 266 6
56 6 56 -28 71 -32 15 -32 16 -5 11 89 -18 357 -56 451 -66 142 -14 152 -19
82 -35 -149 -35 -230 -116 -263 -260 -21 -95 -68 -168 -165 -258 -63 -58 -70
-68 -47 -64 16 3 28 2 28 -2 0 -15 185 -22 290 -10 207 22 361 84 477 193 89
84 133 174 140 290 l6 86 -34 9 c-24 7 46 10 246 11 154 1 305 4 335 7 l55 5
-70 -34 c-38 -19 -93 -55 -122 -81 -73 -66 -101 -128 -112 -248 -11 -119 -43
-189 -136 -305 l-63 -78 37 -3 c59 -6 252 17 336 39 368 96 595 320 595 587 0
44 -3 94 -6 111 -6 28 -10 31 -42 31 -75 0 -17 11 209 40 129 17 277 37 329
45 52 8 111 17 130 20 32 5 30 3 -25 -27 -81 -45 -160 -124 -193 -195 -25 -53
-27 -69 -28 -190 -1 -95 -7 -146 -19 -185 -19 -56 -90 -201 -126 -255 -26 -41
-25 -41 114 -12 126 25 283 77 374 122 194 98 355 271 412 443 43 129 37 354
-9 354 -10 0 -21 4 -24 8 -6 10 208 41 494 72 102 11 203 22 225 25 39 4 39 4
-26 -30 -95 -49 -172 -123 -211 -203 -33 -66 -33 -69 -34 -217 -2 -174 -17
-231 -104 -406 -28 -56 -50 -102 -48 -104 7 -7 280 55 353 79 44 15 120 48
170 74 337 174 528 476 491 776 -7 54 -9 57 -39 64 -55 12 78 20 463 27 l355
6 -71 -29 c-180 -73 -282 -196 -304 -364 -4 -39 -6 -76 -4 -82 10 -25 -26
-177 -59 -253 -19 -45 -60 -124 -91 -176 -31 -53 -56 -99 -56 -103 0 -26 371
36 505 83 296 106 541 323 631 560 29 76 53 195 54 265 0 42 -3 47 -27 56
l-28 10 26 1 c100 3 522 -61 729 -110 l135 -33 -80 -13 c-224 -37 -363 -178
-415 -422 -31 -144 -87 -252 -235 -448 -39 -52 -62 -90 -56 -96 5 -5 71 -11
147 -14 366 -14 625 68 892 282 136 110 264 274 319 407 l24 60 -23 25 -23 25
50 -25 c169 -85 336 -206 445 -325 51 -56 87 -109 146 -220 165 -313 312 -509
497 -664 l59 -48 -59 -26 c-88 -39 -199 -64 -290 -65 l-82 -2 -5 -28 c-4 -16
-9 -42 -12 -59 l-6 -30 95 0 c121 0 256 33 378 93 l90 44 64 -34 c128 -68 266
-103 407 -103 88 0 90 0 85 23 -3 12 -8 38 -12 57 l-6 35 -82 2 c-91 2 -202
28 -290 67 l-59 26 59 48 c178 149 352 380 484 643 28 57 65 124 82 149 72
105 218 237 363 327 98 62 219 123 187 94 -29 -24 -29 -29 6 -105 76 -169 241
-352 425 -474 231 -153 460 -211 780 -199 76 3 142 9 146 14 5 4 -35 66 -87
137 -115 158 -185 297 -208 416 -22 109 -62 195 -127 265 -77 85 -156 125
-293 149 l-70 12 130 32 c199 48 633 114 734 111 l26 -1 -27 -10 c-25 -9 -28
-14 -28 -56 0 -70 18 -168 45 -245 96 -277 388 -519 733 -608 153 -39 412 -74
412 -56 0 2 -27 51 -60 108 -108 186 -149 314 -150 457 0 192 -109 337 -314
418 l-61 25 345 -6 c353 -5 531 -14 475 -25 -36 -6 -43 -27 -44 -141 -4 -322
242 -617 638 -766 71 -26 195 -58 307 -77 l71 -13 -52 111 c-86 180 -98 228
-100 396 -2 159 -11 197 -64 274 -40 58 -98 106 -179 150 -66 35 -66 36 -27
31 22 -3 108 -12 190 -20 217 -21 535 -68 529 -77 -3 -4 -13 -8 -24 -8 -26 0
-32 -22 -37 -135 -6 -120 10 -195 64 -303 119 -239 381 -407 750 -481 144 -30
139 -32 91 47 -98 159 -121 236 -122 407 -1 122 -3 134 -29 188 -36 72 -107
144 -189 192 -48 28 -56 35 -33 31 68 -13 439 -66 565 -81 136 -16 173 -25
107 -25 -38 0 -37 2 -52 -95 -9 -60 12 -171 45 -240 64 -133 171 -234 325
-309 162 -78 293 -111 492 -123 l116 -6 -67 84 c-96 121 -126 187 -138 301
-17 176 -90 274 -258 346 l-55 23 94 -5 c52 -3 205 -6 340 -7 171 -1 236 -4
214 -10 -33 -10 -33 -10 -33 -73 0 -316 365 -544 818 -511 50 4 90 11 87 16
-4 5 8 6 25 2 29 -5 24 2 -58 83 -99 98 -125 140 -148 241 -8 38 -26 87 -40
110 -41 71 -139 134 -232 149 -23 4 -42 10 -42 13 0 4 56 13 124 19 113 12
411 55 461 67 11 3 6 -2 -11 -11 -30 -15 -31 -20 -26 -58 37 -297 380 -449
804 -356 130 28 130 28 48 84 -93 64 -152 131 -178 203 -43 117 -131 181 -263
191 -38 2 -68 6 -66 8 2 2 89 28 193 58 104 30 223 66 264 80 50 17 68 20 53
9 -30 -21 -29 -38 8 -111 112 -225 443 -278 788 -126 30 13 52 26 50 29 -3 2
-41 22 -86 44 -84 43 -134 89 -185 173 -38 63 -105 97 -206 106 l-77 7 225
111 c123 61 211 101 195 88 l-29 -23 18 -38 c68 -152 264 -218 482 -163 82 21
215 81 272 123 l33 25 -68 22 c-92 29 -143 60 -188 116 -21 25 -57 55 -79 65
-46 21 -157 26 -202 9 -50 -19 -34 -4 59 56 50 32 143 96 206 142 75 55 105
72 87 52 -32 -38 -32 -38 -2 -79 89 -120 276 -145 462 -61 70 32 168 96 203
133 l23 26 -38 6 c-94 16 -144 36 -195 80 -83 71 -152 82 -254 40 l-60 -24 55
47 c30 26 109 97 175 157 66 61 110 96 97 79 -21 -31 -21 -32 -3 -56 11 -13
43 -37 73 -53 46 -25 63 -29 128 -29 125 1 238 54 353 166 l62 61 -80 12 c-83
12 -100 19 -162 61 -54 36 -139 34 -209 -5 -28 -17 -54 -28 -57 -25 -3 3 10
30 29 61 76 127 67 251 -27 358 -32 36 -82 152 -94 218 -7 37 -18 47 -30 27z
m-13860 -387 c126 -44 376 -165 479 -233 159 -104 284 -206 421 -344 272 -273
462 -571 566 -887 47 -145 51 -178 5 -54 -46 125 -74 184 -141 300 -119 206
-217 335 -395 519 -266 275 -547 476 -925 663 -177 87 -179 94 -10 36z m5465
-41 c-271 -136 -446 -250 -679 -440 -326 -266 -611 -640 -748 -981 -23 -58
-42 -101 -43 -94 -1 29 66 207 118 317 118 245 247 428 450 637 204 211 404
359 657 485 137 69 348 153 385 153 8 0 -55 -34 -140 -77z m8014 -4 c-34 -117
-73 -307 -100 -488 -19 -129 -22 -141 -18 -70 9 149 33 314 63 431 25 99 65
209 75 209 2 0 -7 -37 -20 -82z m-21439 -38 c32 -96 53 -196 71 -340 21 -168
16 -233 -6 -80 -22 150 -63 348 -90 440 -35 119 -16 103 25 -20z m6358 -70
c241 -54 561 -190 767 -327 285 -189 587 -479 754 -723 42 -60 27 -46 -82 82
-171 202 -465 447 -735 614 -190 118 -511 267 -732 340 -115 38 -105 43 28 14z
m8768 4 c-176 -55 -455 -176 -644 -280 -332 -182 -693 -474 -909 -735 -81 -99
-115 -132 -62 -61 202 271 395 467 649 659 246 185 590 346 888 413 96 22 141
24 78 4z m5858 -206 c-52 -118 -117 -301 -169 -478 -57 -194 -64 -191 -16 6
48 195 88 311 153 442 61 125 83 146 32 30z m-20527 -30 c58 -116 100 -236
142 -403 51 -198 52 -238 2 -70 -54 184 -116 361 -167 479 -22 49 -39 91 -39
93 0 17 24 -21 62 -99z m21958 47 c0 -3 -37 -24 -82 -45 -100 -48 -208 -71
-326 -68 -48 1 -67 3 -42 5 162 12 345 54 420 98 29 16 30 17 30 10z m-17275
-126 c382 -70 816 -308 1203 -658 40 -36 94 -91 119 -121 45 -53 44 -52 -32
19 -344 319 -858 606 -1313 735 -65 18 -133 38 -152 44 -34 11 -33 11 15 6 28
-3 99 -14 160 -25z m11330 25 c-5 -2 -66 -19 -135 -38 -342 -93 -660 -241
-980 -456 -133 -90 -270 -194 -353 -270 -32 -29 -60 -50 -63 -48 -3 3 41 49
98 101 398 370 831 611 1233 686 139 26 229 37 200 25z m-15440 -245 c36 -52
94 -156 129 -230 64 -133 160 -368 153 -375 -2 -2 -18 31 -37 74 -56 130 -205
419 -290 562 -86 146 -61 129 45 -31z m19453 129 c-97 -150 -293 -524 -363
-691 -15 -37 -30 -65 -32 -63 -9 9 114 301 188 446 69 134 196 330 215 330 3
0 0 -10 -8 -22z m-20391 -110 c-3 -7 -5 -2 -5 12 0 14 2 19 5 13 2 -7 2 -19 0
-25z m3906 -59 c329 -84 888 -403 1187 -678 30 -28 15 -19 -45 26 -277 206
-760 474 -1130 627 -60 25 -106 45 -102 46 5 0 45 -9 90 -21z m13402 -25
c-369 -152 -867 -428 -1129 -627 -109 -83 -87 -55 37 46 266 217 610 422 907
540 108 43 246 85 280 86 8 0 -34 -20 -95 -45z m-15759 -86 c106 -109 168
-189 281 -358 70 -105 168 -269 197 -332 19 -40 13 -30 -84 120 -136 209 -370
521 -474 630 -22 23 -35 42 -30 42 6 0 56 -46 110 -102z m18224 83 c-5 -11
-15 -23 -20 -26 -38 -23 -317 -395 -461 -612 -50 -76 -94 -140 -97 -143 -13
-12 87 165 155 272 108 171 239 341 338 441 49 48 90 87 92 87 2 0 -1 -9 -7
-19z m2145 -69 c-51 -45 -260 -87 -380 -78 -131 11 -164 25 -45 19 116 -6 265
13 365 46 73 23 71 23 60 13z m-19621 -119 c145 -106 449 -422 609 -634 46
-60 44 -58 -28 21 -126 137 -533 539 -619 610 -43 36 -90 75 -105 88 -25 23
-25 23 19 -2 25 -14 81 -51 124 -83z m818 25 c114 -59 298 -182 424 -284 127
-101 347 -299 414 -371 43 -46 43 -47 5 -12 -233 210 -659 524 -927 684 -54
31 -98 59 -98 61 0 7 106 -38 182 -78z m15973 73 c-6 -5 -41 -35 -80 -66 -130
-105 -363 -328 -518 -494 -85 -91 -171 -184 -191 -206 -55 -59 62 92 163 210
194 226 398 418 545 514 74 48 103 63 81 42z m-820 -9 c-6 -5 -71 -46 -145
-92 -243 -149 -545 -372 -800 -590 -75 -65 -79 -67 -35 -20 158 165 497 443
685 560 117 73 335 178 295 142z m2402 -174 c-3 -8 -6 -5 -6 6 -1 11 2 17 5
13 3 -3 4 -12 1 -19z m-20110 -10 c-3 -8 -6 -5 -6 6 -1 11 2 17 5 13 3 -3 4
-12 1 -19z m-215 -264 c-139 -46 -280 -56 -414 -30 -80 16 -154 41 -88 31 174
-28 377 -24 495 9 81 23 86 16 7 -10z m20588 0 c96 -20 341 -21 427 -1 85 19
70 3 -19 -19 -108 -28 -305 -26 -417 5 -77 20 -156 52 -91 36 14 -3 59 -13
100 -21z m-19690 -39 c0 -5 -5 -3 -10 5 -5 8 -10 20 -10 25 0 6 5 3 10 -5 5
-8 10 -19 10 -25z m10617 -257 c-3 -8 -6 -5 -6 6 -1 11 2 17 5 13 3 -3 4 -12
1 -19z m-10697 -2 c0 -2 -7 -7 -16 -10 -8 -3 -12 -2 -9 4 6 10 25 14 25 6z
m13706 -126 c113 -153 206 -260 345 -395 133 -130 215 -197 349 -290 110 -75
115 -80 56 -54 -281 124 -556 396 -811 804 -50 80 -33 62 61 -65z m5480 24
c113 -28 283 -46 374 -39 56 4 61 3 35 -6 -16 -6 -88 -12 -160 -12 -110 0
-145 4 -228 26 -86 23 -287 107 -287 120 0 3 38 -10 85 -30 47 -19 129 -45
181 -59z m-19232 76 c-21 -21 -190 -88 -279 -111 -74 -20 -113 -24 -215 -23
-69 1 -138 6 -155 11 -21 7 6 9 100 10 78 0 166 7 220 17 96 19 254 67 295 91
29 17 49 20 34 5z m5320 -2 c-33 -58 -186 -280 -241 -348 -93 -117 -252 -275
-349 -347 -45 -33 -128 -84 -185 -113 -121 -61 -119 -58 21 40 250 176 468
394 675 673 72 97 99 129 79 95z m1326 -60 c-313 -378 -617 -633 -887 -747
-105 -44 -125 -46 -53 -5 107 61 348 227 464 320 105 84 308 275 450 422 38
40 71 72 74 72 2 0 -20 -28 -48 -62z m5967 -251 c195 -182 441 -366 652 -489
47 -27 75 -47 61 -43 -114 32 -329 153 -472 265 -103 81 -324 300 -443 440
-129 152 -131 158 -14 38 57 -59 154 -154 216 -211z m-8582 96 c-142 -263
-319 -471 -507 -596 -74 -50 -223 -127 -244 -127 -4 0 31 24 78 53 135 85 246
173 349 277 100 101 252 297 321 412 22 38 42 68 45 68 3 0 -16 -39 -42 -87z
m10983 -58 c183 -273 357 -446 620 -612 94 -59 79 -62 -33 -5 -103 51 -235
144 -310 219 -116 114 -262 318 -340 473 -36 71 -32 67 63 -75z m-14118 71 c0
-2 -33 -29 -72 -59 -210 -158 -428 -239 -632 -235 -44 0 -65 3 -46 5 81 8 254
45 327 69 102 34 253 110 345 173 77 53 78 53 78 47z m17453 -150 c146 -71
277 -109 467 -136 57 -8 51 -9 -50 -5 -137 4 -234 27 -357 85 -89 42 -223 126
-283 179 -21 19 -2 10 48 -23 46 -30 125 -75 175 -100z m-15444 37 c-50 -85
-165 -226 -248 -305 -151 -144 -291 -232 -457 -287 -108 -36 -143 -40 -64 -7
281 116 560 331 727 557 32 44 59 79 61 79 2 0 -6 -17 -19 -37z m13231 -54
c151 -203 435 -423 682 -530 103 -44 68 -43 -58 3 -246 88 -498 304 -669 571
-33 51 -8 27 45 -44z m-14280 57 c0 -2 -8 -10 -17 -17 -16 -13 -17 -12 -4 4
13 16 21 21 21 13z m6240 -10 c0 -5 -325 -230 -500 -346 -227 -151 -456 -266
-609 -305 -98 -25 -103 -14 -10 24 169 67 524 266 1014 568 109 67 105 65 105
59z m3042 -144 c442 -270 739 -433 906 -496 40 -16 72 -30 70 -32 -7 -7 -170
36 -237 63 -181 72 -370 182 -696 406 -380 262 -383 267 -43 59z m6235 -49
c127 -94 314 -186 488 -239 l80 -25 -57 6 c-137 13 -348 103 -489 210 -46 35
-122 103 -169 151 l-85 88 75 -65 c41 -36 112 -93 157 -126z m-15602 106 c-98
-100 -224 -196 -326 -249 -117 -60 -255 -107 -335 -115 l-59 -5 66 20 c233 69
459 193 627 344 40 36 76 66 80 66 3 0 -20 -27 -53 -61z"/>
<path d="M23770 11118 c-19 -24 -26 -37 -17 -29 19 15 61 71 54 71 -2 0 -19
-19 -37 -42z"/>
<path d="M825 11110 c10 -11 20 -20 23 -20 3 0 -3 9 -13 20 -10 11 -20 20 -23
20 -3 0 3 -9 13 -20z"/>
<path d="M870 11055 c13 -14 26 -25 28 -25 3 0 -5 11 -18 25 -13 14 -26 25
-28 25 -3 0 5 -11 18 -25z"/>
<path d="M23669 10998 c-106 -121 -135 -157 -69 -88 68 71 144 160 137 160 -2
0 -33 -33 -68 -72z"/>
<path d="M959 10951 c33 -37 69 -74 78 -82 10 -8 -15 23 -56 69 -41 45 -76 82
-78 82 -3 0 22 -31 56 -69z"/>
<path d="M1185 10711 c51 -54 262 -243 283 -254 10 -5 1 6 -18 23 -19 18 -78
71 -130 119 -52 48 -113 103 -135 121 l-40 34 40 -43z"/>
<path d="M7953 7046 c-109 -36 -224 -142 -264 -243 -32 -82 -32 -224 0 -306
32 -82 123 -177 209 -219 63 -31 73 -33 177 -33 99 0 116 3 168 27 74 35 166
123 200 191 81 167 48 356 -84 482 -85 81 -151 108 -269 112 -61 2 -110 -2
-137 -11z"/>
<path d="M9215 6809 c-247 -77 -451 -142 -453 -144 -2 -2 13 -25 34 -52 48
-63 90 -153 111 -239 15 -61 17 -175 21 -1024 2 -630 0 -992 -7 -1065 -14
-141 -43 -261 -84 -344 -17 -36 -33 -69 -35 -73 -2 -5 227 -8 508 -8 281 0
510 3 508 8 -75 148 -100 234 -118 394 -6 62 -10 566 -10 1393 0 1030 -3 1295
-12 1294 -7 0 -215 -63 -463 -140z"/>
<path d="M11795 6835 c-198 -62 -399 -125 -447 -139 -49 -15 -88 -32 -88 -38
0 -6 14 -27 32 -46 47 -55 95 -168 113 -267 10 -58 15 -152 15 -279 l0 -192
-77 38 c-112 54 -225 78 -371 78 -191 0 -335 -40 -489 -136 -92 -57 -232 -193
-293 -283 -57 -86 -134 -249 -159 -341 -86 -310 -62 -710 57 -963 84 -180 207
-313 354 -385 128 -63 190 -76 353 -76 124 1 149 4 220 27 138 45 255 128 335
236 25 33 51 60 58 61 9 0 12 -40 12 -166 l0 -166 28 4 c161 25 902 165 902
170 0 4 -16 29 -36 54 -47 62 -69 107 -96 195 l-23 74 -3 1328 c-2 1249 -4
1327 -20 1326 -9 -1 -179 -52 -377 -114z m-529 -1014 c57 -33 93 -76 129 -153
l25 -53 0 -651 0 -652 -32 -48 c-19 -27 -54 -62 -82 -79 -45 -27 -57 -30 -136
-30 -79 0 -91 3 -136 30 -167 102 -255 481 -225 965 21 336 77 534 179 633 55
53 88 67 162 67 53 0 74 -5 116 -29z"/>
<path d="M2259 6728 c77 -114 122 -255 140 -433 15 -144 15 -1828 1 -1963 -19
-172 -76 -348 -140 -429 -11 -14 -20 -30 -20 -35 0 -6 325 -8 833 -5 905 4
924 5 1125 63 335 97 522 246 599 478 25 74 27 94 27 241 0 148 -2 166 -27
241 -64 192 -218 352 -419 435 -78 32 -216 69 -260 69 -17 0 -28 5 -28 14 0
15 21 26 52 26 39 0 200 61 269 101 84 49 186 142 229 209 119 186 117 484 -6
668 -101 153 -289 260 -571 324 -97 22 -111 22 -962 25 l-863 4 21 -33z m1358
-108 c109 -54 196 -172 238 -325 23 -82 31 -295 15 -393 -33 -206 -135 -353
-287 -413 -49 -19 -82 -24 -205 -27 l-148 -4 0 572 0 571 45 20 c109 48 241
48 342 -1z m-21 -1303 c227 -64 355 -249 385 -553 27 -278 -38 -531 -171 -664
-137 -137 -363 -170 -540 -80 l-40 20 0 652 0 651 158 -6 c90 -3 179 -12 208
-20z"/>
<path d="M13324 6655 c124 -138 229 -278 311 -415 36 -61 194 -368 351 -682
l286 -572 -5 -355 c-5 -373 -8 -410 -57 -556 -11 -33 -38 -91 -60 -129 -22
-37 -40 -72 -40 -77 0 -5 246 -9 575 -9 410 0 575 3 575 11 0 6 -8 23 -19 37
-30 44 -68 125 -90 193 -42 128 -51 242 -51 617 l0 352 279 558 c154 306 305
595 337 642 100 149 233 299 379 428 l70 62 -368 0 c-203 0 -367 -3 -365 -7 2
-5 18 -37 36 -73 46 -92 65 -194 58 -305 -9 -151 -41 -238 -228 -620 -93 -192
-191 -394 -216 -447 -26 -54 -49 -98 -52 -98 -7 0 -394 811 -441 925 -87 210
-92 412 -14 567 14 28 25 52 25 54 0 2 -308 4 -685 4 l-686 0 95 -105z"/>
<path d="M5430 5854 c-239 -74 -441 -137 -448 -139 -9 -3 -1 -21 26 -57 53
-71 79 -125 104 -216 20 -72 22 -111 28 -597 7 -580 6 -571 81 -722 119 -244
404 -368 707 -308 168 34 335 150 432 303 25 39 51 71 58 71 9 1 12 -44 12
-194 0 -119 4 -195 10 -195 5 0 212 36 459 80 248 44 453 80 456 80 12 0 3 20
-26 56 -40 51 -83 135 -105 210 -17 54 -18 128 -21 912 -4 796 -5 852 -21 852
-29 0 -912 -274 -912 -284 0 -4 13 -25 30 -46 50 -64 98 -178 115 -274 12 -70
15 -178 15 -525 0 -269 -4 -450 -10 -473 -47 -169 -289 -236 -423 -117 -25 21
-55 60 -68 86 l-24 48 -3 793 c-3 741 -4 792 -20 791 -9 0 -213 -61 -452 -135z"/>
<path d="M7980 5854 c-239 -74 -441 -136 -448 -139 -9 -3 -1 -21 26 -57 53
-71 79 -125 105 -216 20 -73 21 -103 25 -582 4 -629 -5 -735 -84 -909 -19 -41
-34 -78 -34 -82 0 -5 227 -9 505 -9 278 0 505 2 505 5 0 3 -13 31 -29 63 -36
73 -56 136 -77 242 -15 74 -18 193 -21 953 -4 805 -5 867 -21 867 -9 -1 -213
-62 -452 -136z"/>
<path d="M16667 5975 c-358 -68 -666 -309 -798 -624 -104 -248 -117 -571 -34
-818 150 -445 568 -734 1060 -733 558 2 988 339 1101 865 25 117 23 350 -3
475 -89 415 -374 707 -802 822 -103 27 -408 35 -524 13z m350 -121 c23 -19 52
-59 76 -105 76 -150 106 -349 114 -749 14 -725 -78 -1075 -290 -1097 -128 -13
-213 77 -267 284 -51 196 -77 584 -60 923 18 385 66 602 157 710 49 58 79 71
160 68 62 -3 76 -7 110 -34z"/>
<path d="M18563 5852 c-244 -75 -443 -141 -443 -145 0 -5 16 -29 35 -54 42
-55 77 -128 101 -208 15 -52 18 -130 24 -585 8 -582 9 -587 77 -730 50 -104
159 -213 263 -263 189 -90 421 -89 609 4 102 50 229 167 281 258 56 97 60 88
60 -134 0 -131 3 -195 11 -195 23 0 913 160 918 165 3 3 1 12 -4 19 -86 113
-124 201 -145 336 -6 40 -10 375 -10 868 0 741 -1 802 -17 802 -22 0 -896
-270 -906 -280 -5 -4 8 -30 29 -56 43 -57 76 -125 101 -209 15 -53 18 -119 21
-540 2 -361 0 -491 -9 -524 -19 -68 -89 -135 -163 -156 -142 -41 -270 12 -325
135 -20 44 -21 62 -21 838 l0 792 -22 -1 c-13 0 -222 -62 -465 -137z"/>
<path d="M21113 5852 c-244 -75 -443 -141 -443 -145 0 -5 16 -29 35 -54 44
-58 80 -134 102 -215 14 -54 17 -136 21 -588 2 -365 0 -554 -8 -620 -14 -112
-52 -248 -86 -309 -13 -24 -24 -47 -24 -52 0 -5 224 -9 505 -9 278 0 505 3
505 6 0 3 -15 38 -34 77 -76 160 -88 271 -84 732 4 355 5 373 27 432 42 116
125 183 261 212 30 6 148 15 262 18 l208 6 0 324 0 323 -66 0 c-135 0 -299
-57 -401 -139 -29 -23 -73 -70 -99 -104 -73 -96 -120 -204 -164 -374 -24 -95
-30 -39 -30 287 l0 330 -22 -1 c-13 0 -222 -62 -465 -137z"/>
<path d="M20144 3315 c-264 -48 -453 -167 -594 -375 -54 -79 -93 -162 -134
-279 -79 -228 -150 -318 -331 -424 -38 -22 -72 -43 -75 -45 -3 -2 6 -12 20
-21 56 -36 109 -94 129 -140 40 -93 43 -160 38 -824 -4 -535 -7 -645 -21 -717
-21 -106 -41 -169 -77 -242 -16 -32 -29 -60 -29 -63 0 -3 227 -5 505 -5 368 0
505 3 505 11 0 6 -13 39 -30 73 -37 77 -66 186 -79 310 -7 58 -11 371 -11 810
l0 716 211 2 211 3 28 77 27 77 -351 3 c-329 4 -355 5 -416 26 -70 23 -141 75
-164 121 -53 101 -13 212 95 267 102 51 147 56 542 61 l367 5 0 294 0 294
-147 -1 c-82 0 -180 -7 -219 -14z"/>
<path d="M18222 3130 c-244 -76 -446 -141 -449 -144 -3 -3 8 -21 26 -41 43
-49 88 -142 114 -234 21 -75 21 -89 25 -1041 2 -644 0 -1000 -7 -1070 -15
-138 -44 -258 -84 -339 -17 -36 -33 -69 -35 -73 -2 -5 226 -8 507 -8 281 0
511 2 511 4 0 3 -16 35 -35 73 -40 78 -69 196 -84 335 -7 63 -11 552 -11 1388
0 1222 -1 1290 -17 1289 -10 -1 -218 -63 -461 -139z"/>
<path d="M14156 3134 c-336 -45 -631 -215 -793 -454 -143 -212 -180 -499 -98
-759 34 -106 87 -191 175 -281 135 -136 313 -227 670 -340 539 -170 660 -226
779 -355 136 -150 130 -400 -15 -556 -27 -28 -68 -62 -92 -76 -178 -105 -499
-91 -742 32 -211 107 -419 320 -573 587 -55 95 -157 314 -157 336 0 7 -9 12
-20 12 -20 0 -20 -5 -18 -477 l3 -478 88 -33 c48 -18 156 -50 240 -72 719
-187 1356 -101 1685 228 161 161 239 347 249 592 12 297 -58 483 -250 667
-147 141 -300 214 -747 354 -487 153 -645 240 -722 397 -31 62 -33 73 -33 172
0 99 2 110 33 172 105 214 419 290 725 174 240 -90 480 -359 673 -753 39 -79
71 -133 80 -133 12 0 14 66 14 449 l0 449 -97 31 c-348 110 -762 156 -1057
115z"/>
<path d="M4110 3080 c0 -7 9 -25 21 -41 37 -52 90 -179 111 -267 21 -85 22
-106 25 -1077 4 -1007 2 -1078 -34 -1225 -18 -75 -59 -170 -97 -226 -14 -21
-26 -45 -26 -52 0 -11 136 -13 818 -9 871 5 896 6 1098 57 376 95 579 264 651
540 25 100 23 293 -6 395 -82 293 -311 470 -699 541 -42 8 -17 28 49 40 152
28 306 112 415 226 107 111 154 235 154 409 0 323 -175 523 -557 634 -194 57
-200 57 -1095 62 -625 3 -828 1 -828 -7z m1368 -136 c115 -56 199 -172 243
-339 31 -113 31 -335 0 -448 -39 -146 -122 -267 -218 -320 -78 -42 -154 -57
-285 -57 l-118 0 0 574 0 574 44 17 c76 29 108 34 194 31 65 -3 94 -10 140
-32z m-47 -1298 c195 -42 330 -181 391 -403 19 -67 21 -105 21 -273 0 -167 -3
-206 -21 -271 -79 -289 -283 -440 -540 -400 -42 6 -100 22 -129 36 l-53 24 0
650 0 651 133 0 c74 0 161 -6 198 -14z"/>
<path d="M11729 2714 c-57 -60 -229 -206 -319 -270 -159 -115 -405 -241 -536
-276 -51 -14 -54 -22 -16 -42 48 -25 111 -98 134 -156 22 -54 23 -63 28 -670
l6 -615 27 -80 c122 -363 505 -557 907 -459 207 51 411 208 454 350 12 38 -22
38 -67 -1 -110 -95 -319 -84 -436 21 -28 26 -62 65 -76 88 -53 91 -55 116 -55
834 l0 662 273 0 272 0 22 63 c12 34 25 70 28 80 7 16 -11 17 -294 17 l-301 0
0 245 c0 135 -4 245 -8 245 -4 0 -24 -16 -43 -36z"/>
<path d="M7781 2309 c-235 -29 -455 -136 -619 -301 -210 -209 -322 -499 -322
-831 0 -382 155 -701 429 -886 230 -156 561 -209 849 -135 336 85 583 331 685
684 22 75 23 85 9 89 -9 2 -25 -10 -36 -25 -69 -95 -171 -170 -286 -211 -101
-35 -271 -44 -387 -18 -150 33 -303 121 -403 232 -129 144 -211 329 -254 571
l-5 32 685 0 685 0 -7 68 c-36 366 -287 637 -666 717 -89 19 -264 26 -357 14z
m47 -124 c43 -19 104 -74 138 -127 56 -87 114 -292 114 -402 l0 -46 -325 0
-325 0 0 73 c0 257 64 433 179 494 54 28 161 32 219 8z"/>
<path d="M9685 2310 c-438 -50 -736 -336 -735 -707 1 -215 93 -396 263 -517
124 -87 250 -139 508 -206 225 -59 321 -97 385 -153 63 -56 84 -103 84 -198 0
-101 -22 -162 -80 -219 -131 -132 -382 -114 -626 45 -159 104 -306 274 -406
469 -37 74 -58 106 -71 106 -16 0 -17 -20 -15 -332 l3 -332 59 -23 c85 -34
262 -78 401 -99 186 -28 465 -24 615 9 212 45 348 114 467 233 180 183 225
506 104 749 -109 218 -307 342 -726 453 -232 62 -318 97 -386 159 -52 47 -78
99 -85 171 -13 119 43 224 144 273 62 30 191 32 272 5 240 -81 466 -298 609
-583 69 -139 71 -132 71 238 l0 320 -36 15 c-63 26 -285 84 -399 104 -136 23
-314 32 -420 20z"/>
<path d="M16625 2309 c-213 -25 -430 -125 -588 -269 -110 -101 -213 -251 -267
-392 -153 -397 -97 -869 139 -1169 221 -282 626 -413 1021 -333 321 66 589
309 700 636 42 126 45 148 23 148 -10 0 -26 -12 -35 -28 -47 -79 -178 -173
-297 -214 -57 -20 -85 -23 -216 -23 -142 0 -155 2 -238 32 -125 44 -190 86
-293 188 -151 150 -248 349 -279 573 l-7 52 683 0 682 0 -6 73 c-9 99 -31 178
-76 272 -155 325 -527 504 -946 454z m64 -134 c111 -56 190 -205 226 -430 8
-49 15 -100 15 -112 l0 -23 -326 0 -327 0 6 148 c7 196 33 284 104 362 51 58
102 80 186 80 52 0 79 -6 116 -25z"/>
</g>
</svg>
